HIERARCHY
ROOT root
{
	OFFSET 0.000000 0.000000 0.000000
	CHANNELS 6 Xposition Yposition Zposition Zrotation Yrotation Xrotation
	JOINT lhip
	{
		OFFSET 0.058581 -0.082280 -0.017664
		CHANNELS 3 Zrotation Yrotation Xrotation
		JOINT lknee
		{
			OFFSET 0.043451 -0.386469 0.008037
			CHANNELS 3 Zrotation Yrotation Xrotation
			JOINT lankle
			{
				OFFSET -0.014790 -0.426874 -0.037428
				CHANNELS 3 Zrotation Yrotation Xrotation
				JOINT ltoe
				{
					OFFSET 0.041054 -0.060286 0.122042
					CHANNELS 3 Zrotation Yrotation Xrotation
					End Site
					{
						OFFSET 0.000000 0.000000 0.000000
					}
				}
			}
		}
	}
	JOINT rhip
	{
		OFFSET -0.060310 -0.090513 -0.013543
		CHANNELS 3 Zrotation Yrotation Xrotation
		JOINT rknee
		{
			OFFSET -0.043257 -0.383688 -0.004843
			CHANNELS 3 Zrotation Yrotation Xrotation
			JOINT rankle
			{
				OFFSET 0.019056 -0.420046 -0.034562
				CHANNELS 3 Zrotation Yrotation Xrotation
				JOINT rtoe
				{
					OFFSET -0.034840 -0.062106 0.130323
					CHANNELS 3 Zrotation Yrotation Xrotation
					End Site
					{
						OFFSET 0.000000 0.000000 0.000000
					}
				}
			}
		}
	}
	JOINT lowerback
	{
		OFFSET 0.004439 0.124404 -0.038385
		CHANNELS 3 Zrotation Yrotation Xrotation
		JOINT upperback
		{
			OFFSET 0.004488 0.137956 0.026820
			CHANNELS 3 Zrotation Yrotation Xrotation
			JOINT chest
			{
				OFFSET -0.002265 0.056032 0.002855
				CHANNELS 3 Zrotation Yrotation Xrotation
				JOINT lowerneck
				{
					OFFSET -0.013390 0.211636 -0.033468
					CHANNELS 3 Zrotation Yrotation Xrotation
					JOINT upperneck
					{
						OFFSET 0.010113 0.088937 0.050410
						CHANNELS 3 Zrotation Yrotation Xrotation
						End Site
						{
							OFFSET 0.000000 0.000000 0.000000
						}
					}
				}
				JOINT lclavicle
				{
					OFFSET 0.071702 0.114000 -0.018898
					CHANNELS 3 Zrotation Yrotation Xrotation
					JOINT lshoulder
					{
						OFFSET 0.122921 0.045205 -0.019046
						CHANNELS 3 Zrotation Yrotation Xrotation
						JOINT lelbow
						{
							OFFSET 0.255332 -0.015649 -0.022946
							CHANNELS 3 Zrotation Yrotation Xrotation
							JOINT lwrist
							{
								OFFSET 0.265709 0.012698 -0.007375
								CHANNELS 3 Zrotation Yrotation Xrotation
								End Site
								{
									OFFSET 0.000000 0.000000 0.000000
								}
							}
						}
					}
				}
				JOINT rclavicle
				{
					OFFSET -0.082954 0.112472 -0.023707
					CHANNELS 3 Zrotation Yrotation Xrotation
					JOINT rshoulder
					{
						OFFSET -0.113228 0.046853 -0.008472
						CHANNELS 3 Zrotation Yrotation Xrotation
						JOINT relbow
						{
							OFFSET -0.260127 -0.014369 -0.031269
							CHANNELS 3 Zrotation Yrotation Xrotation
							JOINT rwrist
							{
								OFFSET -0.269108 0.006794 -0.006027
								CHANNELS 3 Zrotation Yrotation Xrotation
								End Site
								{
									OFFSET 0.000000 0.000000 0.000000
								}
							}
						}
					}
				}
			}
		}
	}
}
MOTION
Frames: 7
Frame Time: 0.033333
0.373173 0.165569 0.989725 85.585313 0.235622 90.572751 7.374839 4.882364 6.181332 -4.105919 -0.956330 -5.893548 0.178582 7.712355 -3.755760 0.000000 -0.000000 0.000000 -7.314757 -3.130827 1.748791 2.068186 0.729815 0.506030 5.291508 -2.766473 -6.267596 0.000000 -0.000000 0.000000 -5.322621 3.952878 -8.895236 2.782952 -2.392480 17.696891 0.132415 0.810204 -6.410249 3.750805 6.399840 6.073365 3.733638 -0.755086 -2.633022 -27.941867 -6.719565 1.982094 -55.515335 -7.695045 19.073819 0.811142 -20.403397 12.126896 -10.466122 -12.463357 13.932916 30.665614 7.904681 8.949177 54.273450 7.267592 14.207720 -8.555282 24.806558 -2.163420 4.641507 10.799429 3.180419 
0.373476 0.165575 0.989609 85.595741 0.240723 90.521240 7.381298 4.848364 6.254258 -4.104601 -0.958700 -5.885473 0.180797 7.707801 -3.802393 0.000000 -0.000000 0.000000 -7.317184 -3.115016 1.826443 2.070625 0.754106 0.509541 5.288256 -2.808117 -6.290105 0.000000 -0.000000 0.000000 -5.305218 3.908004 -8.747942 2.712233 -2.330969 17.425818 0.178999 0.817644 -6.227714 3.758891 6.403148 5.796979 3.698076 -0.755646 -2.283726 -27.840674 -6.764464 2.029153 -55.617402 -7.722462 18.954859 0.819710 -20.393215 12.316111 -10.438805 -12.420267 13.888927 30.547421 7.889914 8.983817 54.433678 7.345045 14.225084 -8.660027 24.805983 -2.076544 4.642317 10.764964 3.126571 
0.373904 0.165451 0.989510 85.598690 0.251774 90.473197 7.391085 4.815185 6.337788 -4.088168 -0.956026 -5.888363 0.156301 7.684581 -3.796131 0.000000 -0.000000 0.000000 -7.305072 -3.098592 1.913960 2.057229 0.764174 0.515437 5.311865 -2.847502 -6.328022 0.000000 -0.000000 0.000000 -5.281262 3.845725 -8.625909 2.610737 -2.266634 17.111609 0.241289 0.834761 -5.969915 3.788510 6.471050 5.520411 3.702944 -0.704022 -2.000593 -27.613041 -6.837202 2.071183 -55.886997 -7.779300 18.823401 0.898816 -20.368910 12.551392 -10.424265 -12.368544 13.856066 30.312021 7.888668 9.023134 54.743569 7.464296 14.232390 -8.758794 24.828149 -1.940973 4.698275 10.696818 3.012511 
0.374507 0.165363 0.989596 85.599994 0.281945 90.420836 7.417355 4.780148 6.449018 -4.092943 -0.931490 -5.925953 0.157778 7.688293 -3.801992 0.000000 -0.000000 0.000000 -7.274915 -3.072506 2.045482 2.049461 0.745525 0.438014 5.342346 -2.849312 -6.302849 0.000000 -0.000000 0.000000 -5.218725 3.794680 -8.607323 2.534511 -2.246564 17.045755 0.234621 0.878899 -5.938785 3.783007 6.502728 5.441920 3.725940 -0.678029 -1.941409 -27.445356 -6.915271 2.163435 -56.131970 -7.787338 18.745259 1.012478 -20.370344 12.617475 -10.611218 -12.359478 13.769252 30.133318 7.996137 9.133220 55.028697 7.450721 14.273781 -8.915582 24.893028 -1.957354 4.702763 10.685783 2.885087 
0.374616 0.165368 0.989605 85.618893 0.278646 90.424357 7.407324 4.757901 6.449619 -4.087315 -0.927838 -5.933730 0.157281 7.679989 -3.793545 0.000000 -0.000000 0.000000 -7.279643 -3.061234 2.060872 2.055606 0.731043 0.415991 5.339205 -2.864221 -6.282216 0.000000 -0.000000 0.000000 -5.217331 3.785816 -8.618950 2.515873 -2.244138 17.008129 0.233011 0.854471 -5.894443 3.785832 6.520815 5.402857 3.716076 -0.703383 -1.913116 -27.435918 -6.936356 2.195134 -56.166547 -7.814199 18.724122 1.053311 -20.335430 12.639651 -10.655050 -12.370952 13.750745 30.114874 8.008284 9.151643 55.081925 7.493426 14.287211 -8.955318 24.889059 -1.914985 4.701557 10.652140 2.862255 
0.374869 0.165312 0.989597 85.613579 0.296560 90.438117 7.425831 4.748453 6.438937 -4.089484 -0.917657 -5.911719 0.145967 7.670383 -3.825007 0.000000 -0.000000 0.000000 -7.259674 -3.048787 2.068609 2.059358 0.742205 0.399649 5.353306 -2.884606 -6.285530 0.000000 -0.000000 0.000000 -5.215597 3.780133 -8.618861 2.500392 -2.238811 16.898808 0.241732 0.831534 -5.814360 3.757789 6.525669 5.333025 3.703191 -0.717027 -1.895314 -27.414688 -6.924761 2.216118 -56.204378 -7.863272 18.693329 1.045376 -20.285225 12.752920 -10.666168 -12.368926 13.735139 30.099528 7.949856 9.164710 55.095938 7.572092 14.272414 -8.912071 24.914517 -1.797169 4.708544 10.628003 2.780912 
0.375157 0.165258 0.989536 85.608107 0.301314 90.488134 7.426324 4.726125 6.407642 -4.089827 -0.892432 -5.917665 0.158550 7.648128 -3.827757 0.000000 -0.000000 0.000000 -7.258245 -3.073098 2.039705 2.064332 0.739114 0.382750 5.369743 -2.843198 -6.286974 0.000000 -0.000000 0.000000 -5.250085 3.785987 -8.700733 2.489763 -2.258524 16.832688 0.253874 0.810269 -5.732071 3.782067 6.583708 5.302075 3.686100 -0.682384 -1.942736 -27.337594 -6.898758 2.226242 -56.286111 -7.925215 18.630925 1.012282 -20.268975 12.842792 -10.703604 -12.339688 13.698853 30.022282 7.875820 9.162644 55.187736 7.689640 14.204217 -8.911691 24.911978 -1.616747 4.758580 10.590511 2.808714 
